<svg data-v-fde0c5aa="" xmlns="http://www.w3.org/2000/svg" viewBox="0 0 300 300" class="iconAbove"><!----><defs data-v-fde0c5aa=""><!----></defs><rect data-v-fde0c5aa="" fill="transparent" x="0" y="0" width="300px" height="300px" class="logo-background-square"></rect><defs data-v-fde0c5aa=""><linearGradient data-v-fde0c5aa="" gradientTransform="rotate(25)" id="fedb59b1-3ee0-4349-bf56-2729193135b7" x1="0%" y1="0%" x2="100%" y2="0%"><stop data-v-fde0c5aa="" offset="0%" stop-color="#FFB350" stop-opacity="1"></stop><stop data-v-fde0c5aa="" offset="100%" stop-color="#99472D" stop-opacity="1"></stop></linearGradient></defs><g data-v-fde0c5aa="" id="cbd4291c-f80d-4997-a661-2774bfae238a" fill="url(#fedb59b1-3ee0-4349-bf56-2729193135b7)" transform="matrix(5.6074604988098145,0,0,5.6074604988098145,33.8094773368033,177.57471264367814)"><path d="M1.05 10.08L1.05 10.08L1.08 7.25L1.08 7.25Q1.08 3.93 0.76 3.50L0.76 3.50L0.76 3.50Q0.60 3.30 0.60 3.23L0.60 3.23L0.60 3.23Q0.60 3.15 0.79 3.04L0.79 3.04L0.79 3.04Q0.98 2.94 1.53 2.81L1.53 2.81L1.53 2.81Q2.07 2.69 2.49 2.69L2.49 2.69L2.49 2.69Q2.91 2.69 2.91 2.88L2.91 2.88L2.88 3.07L2.88 3.07Q2.72 4.58 2.72 6.02L2.72 6.02L2.72 6.02Q2.72 7.46 2.80 9.24L2.80 9.24L2.80 9.24Q2.88 11.02 2.88 11.86L2.88 11.86L2.88 11.86Q2.88 12.99 2.01 13.81L2.01 13.81L2.01 13.81Q1.13 14.63-0.07 14.70L-0.07 14.70L-0.07 14.70Q-0.31 14.67-0.31 14.53L-0.31 14.53L-0.31 14.53Q-0.31 14.43-0.24 14.38L-0.24 14.38L-0.24 14.38Q-0.18 14.32-0.10 14.24L-0.10 14.24L-0.10 14.24Q-0.01 14.15 0.21 13.80L0.21 13.80L0.21 13.80Q0.43 13.45 0.60 13.01L0.60 13.01L0.60 13.01Q0.77 12.57 0.91 11.79L0.91 11.79L0.91 11.79Q1.05 11.00 1.05 10.08ZM8.55 8.47L8.55 8.47L8.53 10.26L8.53 10.26Q8.53 12.12 8.93 12.50L8.93 12.50L8.93 12.50Q8.99 12.56 8.99 12.63L8.99 12.63L8.99 12.63Q8.99 12.84 8.09 12.84L8.09 12.84L8.09 12.84Q7.18 12.84 7.13 12.31L7.13 12.31L7.13 12.31Q7.11 12.18 7.11 11.79L7.11 11.79L7.17 9.55L7.17 9.55Q7.17 9.45 7.06 9.45L7.06 9.45L7.06 9.45Q6.38 9.45 5.80 9.83L5.80 9.83L5.80 9.83Q5.21 10.21 5.21 10.79L5.21 10.79L5.21 10.79Q5.21 11.10 5.38 11.31L5.38 11.31L5.38 11.31Q5.54 11.52 5.79 11.52L5.79 11.52L5.79 11.52Q6.03 11.52 6.20 11.42L6.20 11.42L6.20 11.42Q6.36 11.33 6.38 11.31L6.38 11.31L6.38 11.31Q6.62 11.34 6.62 11.81L6.62 11.81L6.62 11.81Q6.62 12.28 6.19 12.56L6.19 12.56L6.19 12.56Q5.75 12.85 5.28 12.85L5.28 12.85L5.28 12.85Q4.80 12.85 4.46 12.68L4.46 12.68L4.46 12.68Q4.12 12.52 3.96 12.31L3.96 12.31L3.96 12.31Q3.81 12.10 3.71 11.83L3.71 11.83L3.71 11.83Q3.61 11.51 3.61 11.27L3.61 11.27L3.61 11.27Q3.61 10.29 4.23 9.70L4.23 9.70L4.23 9.70Q4.84 9.11 5.81 8.86L5.81 8.86L5.81 8.86Q7.08 8.61 7.14 8.40L7.14 8.40L7.14 8.40Q7.18 8.25 7.18 7.88L7.18 7.88L7.18 7.88Q7.18 7.14 6.43 7.14L6.43 7.14L6.43 7.14Q6.10 7.14 5.85 7.34L5.85 7.34L5.85 7.34Q5.60 7.55 5.60 7.85L5.60 7.85L5.68 8.19L5.68 8.19Q5.66 8.43 5.18 8.47L5.18 8.47L5.03 8.48L5.03 8.48Q4.61 8.48 4.36 8.27L4.36 8.27L4.36 8.27Q4.12 8.06 4.12 7.71L4.12 7.71L4.12 7.71Q4.12 7.49 4.26 7.22L4.26 7.22L4.26 7.22Q4.41 6.94 4.63 6.78L4.63 6.78L4.63 6.78Q4.86 6.61 5.33 6.47L5.33 6.47L5.33 6.47Q5.80 6.34 6.23 6.34L6.23 6.34L6.23 6.34Q6.66 6.34 6.90 6.37L6.90 6.37L6.90 6.37Q7.14 6.40 7.55 6.50L7.55 6.50L7.55 6.50Q7.97 6.61 8.24 6.90L8.24 6.90L8.24 6.90Q8.51 7.20 8.53 7.52L8.53 7.52L8.53 7.52Q8.55 7.85 8.55 8.47ZM12.56 6.62L12.56 6.62L12.56 6.62Q13.16 6.33 13.75 6.33L13.75 6.33L13.75 6.33Q14.34 6.33 14.34 7.55L14.34 7.55L14.34 7.55Q14.34 8.44 14.01 9.37L14.01 9.37L14.01 9.37Q13.68 10.29 13.19 10.99L13.19 10.99L13.19 10.99Q12.18 12.46 11.37 12.95L11.37 12.95L11.37 12.95Q11.17 13.06 11.07 13.06L11.07 13.06L11.07 13.06Q10.98 13.06 10.87 12.85L10.87 12.85L10.87 12.85Q10.77 12.64 10.55 11.93L10.55 11.93L10.55 11.93Q10.33 11.21 10.19 10.65L10.19 10.65L10.07 10.08L10.07 10.08Q9.79 8.85 9.52 8.11L9.52 8.11L9.52 8.11Q9.25 7.38 9.13 7.27L9.13 7.27L8.99 7.14L8.99 7.14Q8.85 7.07 8.85 6.97L8.85 6.97L8.92 6.85L8.92 6.85Q9.10 6.68 9.53 6.50L9.53 6.50L9.53 6.50Q9.95 6.33 10.47 6.33L10.47 6.33L10.47 6.33Q10.71 6.33 10.77 6.59L10.77 6.59L10.77 6.59Q10.98 7.24 11.13 8.11L11.13 8.11L11.13 8.11Q11.28 8.97 11.54 10.07L11.54 10.07L11.54 10.07Q11.80 11.16 11.97 11.17L11.97 11.17L11.97 11.17Q12.05 11.17 12.16 11.05L12.16 11.05L12.16 11.05Q12.26 10.92 12.41 10.71L12.41 10.71L12.41 10.71Q12.56 10.50 12.77 9.90L12.77 9.90L12.77 9.90Q12.99 9.30 12.99 8.87L12.99 8.87L12.99 8.87Q12.99 8.44 12.96 8.21L12.96 8.21L12.96 8.21Q12.92 7.98 12.71 7.67L12.71 7.67L12.71 7.67Q12.50 7.36 12.24 7.31L12.24 7.31L12.24 7.31Q11.97 7.27 11.97 7.14L11.97 7.14L11.97 7.14Q11.97 6.92 12.56 6.62ZM19.36 8.47L19.36 8.47L19.33 10.26L19.33 10.26Q19.33 12.12 19.74 12.50L19.74 12.50L19.74 12.50Q19.80 12.56 19.80 12.63L19.80 12.63L19.80 12.63Q19.80 12.84 18.89 12.84L18.89 12.84L18.89 12.84Q17.99 12.84 17.93 12.31L17.93 12.31L17.93 12.31Q17.92 12.18 17.92 11.79L17.92 11.79L17.98 9.55L17.98 9.55Q17.98 9.45 17.86 9.45L17.86 9.45L17.86 9.45Q17.19 9.45 16.60 9.83L16.60 9.83L16.60 9.83Q16.02 10.21 16.02 10.79L16.02 10.79L16.02 10.79Q16.02 11.10 16.18 11.31L16.18 11.31L16.18 11.31Q16.35 11.52 16.60 11.52L16.60 11.52L16.60 11.52Q16.84 11.52 17.00 11.42L17.00 11.42L17.00 11.42Q17.16 11.33 17.19 11.31L17.19 11.31L17.19 11.31Q17.43 11.34 17.43 11.81L17.43 11.81L17.43 11.81Q17.43 12.28 17.00 12.56L17.00 12.56L17.00 12.56Q16.56 12.85 16.09 12.85L16.09 12.85L16.09 12.85Q15.61 12.85 15.27 12.68L15.27 12.68L15.27 12.68Q14.92 12.52 14.77 12.31L14.77 12.31L14.77 12.31Q14.62 12.10 14.52 11.83L14.52 11.83L14.52 11.83Q14.42 11.51 14.42 11.27L14.42 11.27L14.42 11.27Q14.42 10.29 15.04 9.70L15.04 9.70L15.04 9.70Q15.65 9.11 16.62 8.86L16.62 8.86L16.62 8.86Q17.89 8.61 17.95 8.40L17.95 8.40L17.95 8.40Q17.99 8.25 17.99 7.88L17.99 7.88L17.99 7.88Q17.99 7.14 17.23 7.14L17.23 7.14L17.23 7.14Q16.91 7.14 16.66 7.34L16.66 7.34L16.66 7.34Q16.41 7.55 16.41 7.85L16.41 7.85L16.49 8.19L16.49 8.19Q16.46 8.43 15.99 8.47L15.99 8.47L15.83 8.48L15.83 8.48Q15.41 8.48 15.17 8.27L15.17 8.27L15.17 8.27Q14.92 8.06 14.92 7.71L14.92 7.71L14.92 7.71Q14.92 7.49 15.07 7.22L15.07 7.22L15.07 7.22Q15.22 6.94 15.44 6.78L15.44 6.78L15.44 6.78Q15.67 6.61 16.13 6.47L16.13 6.47L16.13 6.47Q16.60 6.34 17.04 6.34L17.04 6.34L17.04 6.34Q17.47 6.34 17.71 6.37L17.71 6.37L17.71 6.37Q17.95 6.40 18.36 6.50L18.36 6.50L18.36 6.50Q18.77 6.61 19.05 6.90L19.05 6.90L19.05 6.90Q19.32 7.20 19.34 7.52L19.34 7.52L19.34 7.52Q19.36 7.85 19.36 8.47ZM20.80 10.15L20.80 10.15L20.89 7.67L19.95 7.67L19.95 7.67Q19.84 7.67 19.84 7.59L19.84 7.59L19.84 7.59Q19.84 7.34 20.08 7.01L20.08 7.01L20.08 7.01Q20.31 6.68 20.59 6.68L20.59 6.68L20.89 6.68L20.89 6.68Q20.86 5.59 20.83 5.11L20.83 5.11L20.83 5.11Q20.78 4.26 20.55 3.79L20.55 3.79L20.48 3.65L20.48 3.65Q20.43 3.58 20.43 3.49L20.43 3.49L20.43 3.49Q20.43 3.39 20.58 3.32L20.58 3.32L20.58 3.32Q20.73 3.25 21.04 3.15L21.04 3.15L21.04 3.15Q21.34 3.05 22.32 2.89L22.32 2.89L22.32 2.89Q23.30 2.73 24.45 2.73L24.45 2.73L24.45 2.73Q25.61 2.73 25.71 2.90L25.71 2.90L25.71 2.90Q25.82 3.07 25.82 3.42L25.82 3.42L25.82 3.42Q25.82 3.78 25.72 3.78L25.72 3.78L25.72 3.78Q25.70 3.78 25.62 3.77L25.62 3.77L25.62 3.77Q25.40 3.71 24.93 3.71L24.93 3.71L24.93 3.71Q24.47 3.71 23.94 3.79L23.94 3.79L23.94 3.79Q23.41 3.88 23.13 3.96L23.13 3.96L22.86 4.06L22.86 4.06Q22.75 4.09 22.69 4.26L22.69 4.26L22.69 4.26Q22.58 5.08 22.58 6.68L22.58 6.68L24.85 6.68L24.85 6.68Q24.98 6.68 24.98 6.76L24.98 6.76L24.98 6.76Q24.98 7.01 24.75 7.35L24.75 7.35L24.75 7.35Q24.53 7.69 24.25 7.69L24.25 7.69L22.58 7.67L22.68 11.87L22.68 11.87Q22.68 12.18 22.58 12.32L22.58 12.32L22.58 12.32Q22.32 12.67 21.68 12.85L21.68 12.85L21.68 12.85Q21.04 13.02 20.62 13.02L20.62 13.02L20.62 13.02Q20.51 13.02 20.51 12.88L20.51 12.88L20.51 12.88Q20.51 12.81 20.52 12.77L20.52 12.77L20.52 12.77Q20.69 12.53 20.80 10.15ZM30.87 6.44L30.87 6.44L30.87 6.44Q30.62 7.95 30.62 10.29L30.62 10.29L30.62 10.29Q30.62 12.01 30.76 12.56L30.76 12.56L30.81 12.74L30.81 12.74Q30.81 12.92 30.51 12.92L30.51 12.92L30.51 12.92Q29.43 12.92 29.27 12.32L29.27 12.32L29.27 12.32Q29.26 12.25 29.21 12.25L29.21 12.25L29.21 12.25Q29.16 12.25 29.12 12.31L29.12 12.31L29.12 12.31Q28.69 12.88 27.78 12.88L27.78 12.88L27.78 12.88Q27.27 12.88 26.73 12.63L26.73 12.63L26.73 12.63Q26.39 12.47 26.18 12.09L26.18 12.09L26.18 12.09Q25.97 11.70 25.97 11.14L25.97 11.14L26.18 8.08L26.18 8.08Q26.18 7.11 25.98 6.71L25.98 6.71L25.98 6.71Q25.91 6.55 25.91 6.51L25.91 6.51L25.91 6.51Q25.91 6.43 25.98 6.40L25.98 6.40L25.98 6.40Q26.21 6.33 26.56 6.33L26.56 6.33L26.56 6.33Q27.92 6.33 27.92 7.45L27.92 7.45L27.92 7.45Q27.92 7.80 27.63 9.04L27.63 9.04L27.63 9.04Q27.34 10.29 27.34 10.81L27.34 10.81L27.34 10.81Q27.34 11.34 27.57 11.62L27.57 11.62L27.57 11.62Q27.80 11.90 28.22 11.90L28.22 11.90L28.22 11.90Q28.63 11.90 28.87 11.61L28.87 11.61L28.87 11.61Q29.11 11.31 29.15 11.02L29.15 11.02L29.19 10.72L29.19 10.72Q29.25 10.23 29.25 9.00L29.25 9.00L29.25 9.00Q29.25 7.77 29.17 7.44L29.17 7.44L29.17 7.44Q29.09 7.11 29.09 7.03L29.09 7.03L29.09 7.03Q29.09 6.68 29.65 6.47L29.65 6.47L29.65 6.47Q30.21 6.27 30.66 6.27L30.66 6.27L30.66 6.27Q30.87 6.27 30.87 6.44ZM31.54 12.77L31.54 12.77L31.54 12.77Q31.79 11.26 31.79 9.14L31.79 9.14L31.79 9.14Q31.79 7.03 31.67 6.40L31.67 6.40L31.67 6.40Q31.67 6.22 32.09 6.22L32.09 6.22L32.09 6.22Q32.73 6.22 32.94 6.71L32.94 6.71L32.94 6.71Q32.96 6.75 33.01 6.75L33.01 6.75L33.01 6.75Q33.07 6.75 33.10 6.72L33.10 6.72L33.10 6.72Q33.53 6.27 34.44 6.27L34.44 6.27L34.44 6.27Q35.35 6.27 35.88 6.73L35.88 6.73L35.88 6.73Q36.41 7.20 36.41 8.08L36.41 8.08L36.41 8.08Q36.41 8.61 36.32 9.59L36.32 9.59L36.32 9.59Q36.23 10.57 36.23 11.05L36.23 11.05L36.23 11.05Q36.23 12.18 36.61 12.68L36.61 12.68L36.61 12.68Q36.67 12.75 36.67 12.82L36.67 12.82L36.67 12.82Q36.67 13.01 36.27 13.01L36.27 13.01L36.27 13.01Q34.54 13.01 34.54 11.47L34.54 11.47L34.54 11.47Q34.54 10.88 34.80 9.83L34.80 9.83L34.80 9.83Q35.07 8.78 35.07 8.23L35.07 8.23L35.07 8.23Q35.07 7.11 34.15 7.11L34.15 7.11L34.15 7.11Q33.70 7.11 33.47 7.38L33.47 7.38L33.47 7.38Q33.24 7.64 33.21 7.99L33.21 7.99L33.21 7.99Q33.18 8.33 33.18 9.28L33.18 9.28L33.18 9.28Q33.18 10.74 33.28 11.82L33.28 11.82L33.31 12.12L33.31 12.12Q33.31 12.52 32.80 12.73L32.80 12.73L32.80 12.73Q32.28 12.95 31.91 12.95L31.91 12.95L31.91 12.95Q31.54 12.95 31.54 12.77ZM41.71 11.06L41.71 11.06L41.71 11.06Q41.71 11.86 41.07 12.38L41.07 12.38L41.07 12.38Q40.43 12.91 39.55 12.91L39.55 12.91L39.55 12.91Q38.26 12.91 37.66 12.13L37.66 12.13L37.66 12.13Q37.06 11.35 37.06 10.02L37.06 10.02L37.06 10.02Q37.06 8.61 37.69 7.52L37.69 7.52L37.69 7.52Q38.00 6.96 38.57 6.64L38.57 6.64L38.57 6.64Q39.14 6.31 39.91 6.31L39.91 6.31L39.91 6.31Q41.08 6.31 41.55 7.10L41.55 7.10L41.55 7.10Q41.75 7.42 41.75 7.85L41.75 7.85L41.75 7.85Q41.75 8.53 41.19 8.86L41.19 8.86L41.19 8.86Q40.96 8.99 40.77 8.99L40.77 8.99L40.77 8.99Q40.59 8.99 40.47 8.97L40.47 8.97L40.47 8.97Q40.35 8.95 40.15 8.78L40.15 8.78L40.15 8.78Q39.96 8.61 39.96 8.32L39.96 8.32L39.96 8.32Q39.97 8.16 40.19 8.06L40.19 8.06L40.19 8.06Q40.40 7.94 40.40 7.62L40.40 7.62L40.40 7.62Q40.40 7.07 39.73 7.07L39.73 7.07L39.73 7.07Q39.56 7.07 39.33 7.22L39.33 7.22L39.33 7.22Q39.10 7.36 38.95 7.59L38.95 7.59L38.95 7.59Q38.79 7.83 38.66 8.32L38.66 8.32L38.66 8.32Q38.53 8.82 38.53 9.28L38.53 9.28L38.53 9.28Q38.53 9.73 38.56 9.96L38.56 9.96L38.56 9.96Q38.60 10.19 38.72 10.59L38.72 10.59L38.72 10.59Q38.84 10.99 39.16 11.24L39.16 11.24L39.16 11.24Q39.49 11.49 39.98 11.49L39.98 11.49L39.98 11.49Q40.57 11.49 41.02 11.00L41.02 11.00L41.02 11.00Q41.20 10.81 41.31 10.53L41.31 10.53L41.31 10.53Q41.37 10.42 41.45 10.42L41.45 10.42L41.45 10.42Q41.58 10.42 41.64 10.65L41.64 10.65L41.64 10.65Q41.71 10.88 41.71 11.06Z"></path></g><defs data-v-fde0c5aa=""><linearGradient data-v-fde0c5aa="" gradientTransform="rotate(25)" id="7c404c74-ba74-43c2-9c67-f46121722fe7" x1="0%" y1="0%" x2="100%" y2="0%"><stop data-v-fde0c5aa="" offset="0%" stop-color="#99472D" stop-opacity="1"></stop><stop data-v-fde0c5aa="" offset="100%" stop-color="#FFB350" stop-opacity="1"></stop></linearGradient></defs><g data-v-fde0c5aa="" id="f32a1bc0-6fa8-4bbd-8768-54f58a1e6f62" stroke="none" fill="url(#7c404c74-ba74-43c2-9c67-f46121722fe7)" transform="matrix(5.2377190589904785,0,0,5.2377190589904785,66.19649549275803,23.52982882609136)"><path d="M11.03 3.143v1.864H8.11V7.49H23.89V5.007H20.97V3.143h-9.94zM8.11 7.865l1.74 20.992h11.926L23.89 7.865H8.11zm4.748 3.699c.219-.014.53-.016.9 0 .737.034 1.704.151 2.621.497.918.346 1.801.93 2.324 1.894.522.964.67 2.287.195 4.06l-.038.138-.14.041c-1.676.45-2.952.286-3.895-.242-.943-.527-1.534-1.4-1.905-2.31-.742-1.816-.633-3.823-.633-3.823l.01-.212.216-.025s.126-.01.345-.022zm.258.494c-.058 0-.079.016-.122.016.109.246.417.929.872 1.66.272.44.58.848.853 1.082a.94.94 0 0 0 .353.21c.092.023.144.014.223-.042.363-.256.816-.178 1.196.036s.741.56 1.07.938c.33.378.623.789.843 1.139.05.079.078.14.12.211.27-1.368.133-2.379-.261-3.106-.451-.831-1.216-1.344-2.06-1.663-.844-.318-1.755-.432-2.454-.464a3.431 3.431 0 0 0-.633-.014zm-.296.81c.041.664.164 1.613.562 2.587.343.84.872 1.606 1.688 2.063.745.416 1.77.555 3.15.255a5.835 5.835 0 0 0-.24-.416 8.972 8.972 0 0 0-.796-1.076c-.308-.353-.645-.664-.938-.829-.293-.165-.49-.187-.663-.065a.77.77 0 0 1-.627.12 1.374 1.374 0 0 1-.563-.315c-.347-.298-.665-.738-.951-1.199a14.06 14.06 0 0 1-.622-1.125z"></path></g><!----></svg>